<mxfile host="app.diagrams.net" modified="2023-08-28T07:22:54.755Z" agent="Mozilla/5.0 (Macintosh; Intel Mac OS X 10.15; rv:109.0) Gecko/20100101 Firefox/116.0" version="21.6.9" etag="zy2Pg3A3Z801XTTWsHi-" type="github">
  <diagram name="Page-1" id="xQFnX7ijYDyclDte6I0K">
    <mxGraphModel>
      <root>
        <mxCell id="0" />
        <mxCell id="1" parent="0" />
      </root>
    </mxGraphModel>
  </diagram>
</mxfile>
